<svg xmlns="http://www.w3.org/2000/svg" xmlns:xlink="http://www.w3.org/1999/xlink" width="200" zoomAndPan="magnify" viewBox="40 210 375 4.99999" height="100" preserveAspectRatio="xMidYMid meet" version="1.0"><defs><g/><clipPath id="719aa8216c"><path d="M 94.601562 152.246094 L 167 152.246094 L 167 187 L 94.601562 187 Z M 94.601562 152.246094 " clip-rule="nonzero"/></clipPath><clipPath id="b6968bb220"><path d="M 218 192 L 280.601562 192 L 280.601562 202 L 218 202 Z M 218 192 " clip-rule="nonzero"/></clipPath><clipPath id="dbbd7bd581"><path d="M 246 202 L 269 202 L 269 207.746094 L 246 207.746094 Z M 246 202 " clip-rule="nonzero"/></clipPath></defs><rect x="-37.5" width="450" fill="transparent" y="-37.499999" height="449.999989" fill-opacity="1"/><rect x="-37.5" width="450" fill="transparent" y="-37.499999" height="449.999989" fill-opacity="1"/><g clip-path="url(#719aa8216c)"><path fill="#1ecb15" d="M 162.445312 152.734375 C 163.785156 152.515625 165.128906 152.265625 166.488281 152.246094 C 162.566406 152.851562 158.6875 153.808594 154.980469 155.242188 C 151.566406 156.5625 148.339844 158.367188 145.421875 160.582031 C 142.710938 162.613281 140.28125 164.980469 137.703125 167.171875 C 134.800781 169.582031 131.632812 171.648438 128.351562 173.503906 C 121.324219 177.453125 113.808594 180.46875 106.160156 182.980469 C 102.863281 184.050781 99.539062 185.039062 96.179688 185.890625 C 95.683594 186.003906 95.195312 186.175781 94.683594 186.207031 C 96.601562 185.738281 98.484375 185.136719 100.378906 184.578125 C 108.390625 182.113281 116.277344 179.144531 123.722656 175.265625 C 128.976562 172.519531 134.011719 169.292969 138.429688 165.320312 C 139.484375 164.410156 140.433594 163.386719 141.5 162.488281 C 147.398438 157.375 154.789062 154.121094 162.445312 152.734375 Z M 162.445312 152.734375 " fill-opacity="1" fill-rule="nonzero"/></g><path fill="#1ecb15" d="M 181.035156 153.355469 C 189.53125 152.800781 198.066406 153.457031 206.484375 154.648438 C 208.683594 154.816406 210.742188 155.664062 212.8125 156.351562 C 219.304688 158.578125 225.730469 161.03125 231.960938 163.921875 C 226.640625 163.445312 221.296875 163.289062 215.957031 163.273438 C 209.574219 163.246094 203.195312 163.433594 196.824219 163.746094 C 195.304688 163.832031 193.769531 163.878906 192.269531 163.601562 C 191.078125 163.378906 189.902344 162.925781 188.972656 162.136719 C 186.433594 159.863281 184.027344 157.433594 181.285156 155.398438 C 180.8125 155.023438 180.222656 154.769531 179.882812 154.25 C 179.753906 154.078125 179.730469 153.796875 179.929688 153.664062 C 180.246094 153.433594 180.65625 153.402344 181.035156 153.355469 Z M 181.035156 153.355469 " fill-opacity="1" fill-rule="nonzero"/><path fill="#1ecb15" d="M 167.425781 154.902344 C 169.59375 154.679688 171.820312 154.785156 173.917969 155.40625 C 176.710938 156.203125 179.234375 157.8125 181.285156 159.851562 C 183.007812 161.550781 184.40625 163.554688 185.578125 165.667969 C 177.179688 166.007812 168.78125 166.316406 160.382812 166.664062 C 159.226562 164.152344 157.738281 161.761719 155.773438 159.804688 C 155.449219 159.460938 155 159.191406 154.855469 158.71875 C 154.832031 158.347656 155.242188 158.1875 155.515625 158.050781 C 156.9375 157.453125 158.394531 156.960938 159.867188 156.503906 C 162.332031 155.753906 164.855469 155.152344 167.425781 154.902344 Z M 167.425781 154.902344 " fill-opacity="1" fill-rule="nonzero"/><path fill="#1ecb15" d="M 150.988281 160.148438 C 151.542969 159.875 152.082031 159.492188 152.722656 159.46875 C 153.210938 159.519531 153.585938 159.878906 153.953125 160.171875 C 155.03125 161.144531 155.871094 162.34375 156.664062 163.550781 C 157.109375 164.234375 157.53125 164.9375 157.921875 165.65625 C 158.050781 165.917969 158.203125 166.234375 158.070312 166.527344 C 157.875 166.824219 157.472656 166.792969 157.164062 166.800781 C 154.859375 166.769531 152.558594 166.808594 150.257812 166.878906 C 148.054688 166.976562 145.84375 167.09375 143.667969 167.449219 C 142.875 167.585938 142.070312 167.738281 141.332031 168.070312 C 143.011719 165.207031 145.628906 163.003906 148.511719 161.40625 C 149.316406 160.945312 150.15625 160.558594 150.988281 160.148438 Z M 150.988281 160.148438 " fill-opacity="1" fill-rule="nonzero"/><path fill="#1ecb15" d="M 204.414062 165.171875 C 209.445312 165.050781 214.476562 164.917969 219.503906 164.6875 C 224.929688 164.503906 230.371094 164.578125 235.777344 165.082031 C 240.457031 165.488281 245.125 165.988281 249.78125 166.601562 C 252.234375 166.933594 254.6875 167.289062 257.117188 167.773438 C 260.714844 168.472656 264.355469 169.1875 267.730469 170.667969 C 268.746094 171.117188 269.738281 171.628906 270.679688 172.21875 C 268.765625 171.480469 266.800781 170.847656 264.78125 170.464844 C 263.921875 170.289062 263.050781 170.203125 262.191406 170.03125 C 261.214844 169.949219 260.238281 170.039062 259.261719 170.027344 C 256.226562 170.050781 253.1875 170.148438 250.175781 170.558594 C 249.785156 170.621094 249.328125 170.691406 249.082031 171.042969 C 248.867188 171.386719 249.03125 171.808594 249.1875 172.140625 C 250.230469 173.980469 251.164062 175.878906 252.132812 177.757812 C 252.796875 179.082031 253.488281 180.394531 254.128906 181.726562 C 251.496094 177.527344 247.863281 173.972656 243.652344 171.363281 C 242.929688 170.917969 242.195312 170.5 241.429688 170.136719 C 240.390625 169.660156 239.265625 169.398438 238.140625 169.21875 C 235.972656 168.941406 233.835938 168.476562 231.679688 168.121094 C 221.40625 166.339844 210.988281 165.296875 200.558594 165.28125 C 201.84375 165.191406 203.128906 165.210938 204.414062 165.171875 Z M 204.414062 165.171875 " fill-opacity="1" fill-rule="nonzero"/><path fill="#1ecb15" d="M 230.0625 170.871094 C 231.6875 171.214844 233.328125 171.804688 234.578125 172.941406 C 235.300781 173.585938 235.835938 174.445312 236.066406 175.386719 C 236.222656 176.007812 236.140625 176.703125 235.757812 177.222656 C 235.292969 177.863281 234.554688 178.234375 233.820312 178.472656 C 234.492188 177.960938 235.183594 177.378906 235.46875 176.554688 C 235.738281 175.78125 235.484375 174.925781 235.011719 174.289062 C 234.273438 173.277344 233.222656 172.550781 232.160156 171.917969 C 231.484375 171.523438 230.78125 171.175781 230.058594 170.871094 Z M 230.0625 170.871094 " fill-opacity="1" fill-rule="nonzero"/><path fill="#1ecb15" d="M 261.351562 170.867188 C 261.800781 170.8125 262.261719 170.789062 262.714844 170.835938 C 264.863281 171.269531 267.035156 171.644531 269.121094 172.328125 C 269.730469 172.53125 270.34375 172.777344 270.839844 173.191406 C 271.503906 173.71875 271.929688 174.480469 272.203125 175.269531 C 272.6875 176.683594 273.191406 178.097656 273.539062 179.550781 C 273.679688 180.175781 273.84375 180.867188 273.519531 181.460938 C 273.332031 181.84375 272.890625 182.03125 272.480469 182.003906 C 268.378906 181.691406 264.265625 181.53125 260.152344 181.464844 C 259.097656 181.421875 258.007812 181.566406 256.992188 181.214844 C 255.855469 180.824219 255.023438 179.878906 254.351562 178.921875 C 253.25 177.320312 252.269531 175.640625 251.355469 173.929688 C 251.074219 173.351562 250.808594 172.691406 250.972656 172.039062 C 251.101562 171.5625 251.613281 171.351562 252.066406 171.320312 C 255.152344 171.015625 258.257812 171.019531 261.351562 170.867188 Z M 261.351562 170.867188 " fill-opacity="1" fill-rule="nonzero"/><path fill="#1ecb15" d="M 227.515625 170.972656 C 229.121094 170.84375 230.640625 171.574219 231.984375 172.375 C 232.84375 172.894531 233.675781 173.511719 234.257812 174.34375 C 234.730469 175.023438 234.972656 175.882812 234.820312 176.703125 C 234.597656 177.441406 233.921875 177.953125 233.207031 178.167969 C 232.289062 178.4375 231.308594 178.398438 230.378906 178.222656 C 228.179688 177.796875 226.28125 176.199219 225.390625 174.160156 C 225.113281 173.546875 225.070312 172.777344 225.515625 172.230469 C 226.019531 171.617188 226.691406 171.046875 227.515625 170.972656 Z M 227.515625 170.972656 " fill-opacity="1" fill-rule="nonzero"/><path fill="#1ecb15" d="M 238 171.015625 C 239.589844 170.746094 241.183594 171.367188 242.476562 172.261719 C 243.300781 172.828125 244.035156 173.515625 244.710938 174.25 C 245.328125 174.890625 245.726562 175.71875 245.941406 176.574219 C 246.09375 177.261719 246.105469 178.058594 245.652344 178.644531 C 245.121094 179.316406 244.199219 179.53125 243.378906 179.515625 C 241.179688 179.304688 239.09375 178.113281 237.792969 176.324219 C 237.320312 175.683594 236.941406 174.972656 236.65625 174.230469 C 236.421875 173.550781 236.359375 172.773438 236.648438 172.097656 C 236.882812 171.542969 237.40625 171.125 238 171.015625 Z M 238 171.015625 " fill-opacity="1" fill-rule="nonzero"/><path fill="#1ecb15" d="M 241.691406 171.253906 C 243.089844 172.015625 244.492188 172.8125 245.695312 173.871094 C 246.300781 174.421875 246.882812 175.039062 247.203125 175.804688 C 247.449219 176.375 247.480469 177.0625 247.191406 177.625 C 246.976562 178.085938 246.589844 178.4375 246.195312 178.746094 C 246.605469 177.996094 246.707031 177.085938 246.433594 176.273438 C 246.015625 174.972656 245.058594 173.933594 244.0625 173.035156 C 243.328125 172.367188 242.5 171.820312 241.691406 171.253906 Z M 241.691406 171.253906 " fill-opacity="1" fill-rule="nonzero"/><path fill="#1ecb15" d="M 272.613281 174.234375 C 272.65625 174.210938 272.734375 174.167969 272.773438 174.148438 C 273.164062 174.230469 273.464844 174.523438 273.746094 174.792969 C 274.558594 175.652344 275.125 176.714844 275.601562 177.792969 C 275.917969 178.542969 276.269531 179.296875 276.382812 180.109375 C 276.417969 180.460938 276.449219 180.875 276.191406 181.152344 C 276.027344 181.257812 275.851562 181.125 275.730469 181.019531 C 274.671875 179.980469 274.144531 178.550781 273.480469 177.253906 C 273.128906 176.503906 272.75 175.75 272.550781 174.941406 C 272.515625 174.710938 272.445312 174.429688 272.613281 174.234375 Z M 272.613281 174.234375 " fill-opacity="1" fill-rule="nonzero"/><path fill="#1ecb15" d="M 201.710938 176.800781 C 203.488281 176.484375 205.371094 176.496094 207.070312 177.160156 C 208.566406 177.722656 209.859375 178.746094 210.851562 179.984375 C 212.09375 181.527344 212.921875 183.363281 213.472656 185.257812 C 214.0625 187.335938 214.347656 189.5 214.316406 191.660156 C 214.207031 193.582031 213.953125 195.503906 213.441406 197.367188 C 212.960938 199.113281 212.242188 200.816406 211.144531 202.269531 C 210.179688 203.550781 208.894531 204.601562 207.40625 205.222656 C 205.722656 205.933594 203.839844 206.105469 202.035156 205.871094 C 203.605469 205.71875 205.160156 205.210938 206.433594 204.253906 C 207.875 203.191406 208.910156 201.664062 209.621094 200.035156 C 210.542969 197.917969 211.003906 195.632812 211.269531 193.347656 C 211.558594 191.125 211.519531 188.867188 211.238281 186.648438 C 210.996094 184.816406 210.550781 182.984375 209.699219 181.335938 C 208.964844 179.917969 207.890625 178.652344 206.5 177.84375 C 205.070312 176.984375 203.363281 176.695312 201.710938 176.800781 Z M 201.710938 176.800781 " fill-opacity="1" fill-rule="nonzero"/><path fill="#1ecb15" d="M 142.269531 181.746094 C 143.09375 183.164062 143.980469 184.566406 145.140625 185.734375 C 145.816406 186.402344 146.601562 186.976562 147.496094 187.320312 C 148.4375 187.691406 149.453125 187.785156 150.449219 187.855469 C 162.550781 188.589844 174.652344 189.277344 186.753906 189.984375 C 187.488281 190.054688 188.230469 190.015625 188.957031 190.144531 C 183.226562 190.019531 177.488281 189.964844 171.757812 189.859375 C 164.394531 189.753906 157.03125 189.628906 149.667969 189.523438 C 148.714844 189.484375 147.746094 189.574219 146.804688 189.371094 C 145.398438 189.054688 144.300781 187.886719 143.863281 186.539062 C 143.339844 184.941406 142.769531 183.355469 142.269531 181.746094 Z M 142.269531 181.746094 " fill-opacity="1" fill-rule="nonzero"/><path fill="#1ecb15" d="M 150.949219 191.765625 C 151.375 191.71875 151.796875 191.617188 152.226562 191.621094 C 160.214844 191.933594 168.210938 192.222656 176.203125 192.457031 C 179.097656 192.53125 181.992188 192.628906 184.886719 192.636719 C 185.210938 192.644531 185.535156 192.675781 185.855469 192.714844 C 184.707031 192.6875 183.5625 192.8125 182.414062 192.828125 C 175.152344 193.121094 167.882812 193.140625 160.613281 193.109375 C 154.886719 193.082031 149.160156 192.980469 143.433594 192.847656 C 145.933594 192.464844 148.445312 192.128906 150.949219 191.765625 Z M 150.949219 191.765625 " fill-opacity="1" fill-rule="nonzero"/><g clip-path="url(#b6968bb220)"><path fill="#1ecb15" d="M 218.105469 192.648438 C 218.171875 192.476562 218.363281 192.503906 218.515625 192.503906 C 222.800781 192.710938 227.089844 192.894531 231.382812 192.792969 C 232.054688 194.117188 233.203125 195.207031 234.601562 195.71875 C 235.507812 196.0625 236.488281 196.203125 237.457031 196.160156 C 245.207031 196.648438 252.96875 197.050781 260.738281 196.941406 C 263.503906 196.839844 266.265625 196.671875 269.019531 196.417969 C 271.164062 196.207031 273.304688 195.953125 275.414062 195.507812 C 276.320312 195.308594 277.230469 195.085938 278.089844 194.726562 C 278.535156 194.53125 279.007812 194.308594 279.277344 193.882812 C 279.722656 194.449219 279.917969 195.160156 280.121094 195.839844 C 280.308594 196.484375 280.183594 197.21875 279.742188 197.734375 C 279.101562 198.484375 278.152344 198.867188 277.238281 199.175781 C 275.335938 199.777344 273.34375 200.039062 271.367188 200.269531 C 266.234375 200.8125 261.070312 200.964844 255.914062 201.136719 C 245.253906 201.488281 234.570312 201.171875 223.941406 200.269531 C 222.230469 200.117188 220.515625 199.957031 218.808594 199.757812 C 218.675781 199.71875 218.457031 199.738281 218.433594 199.558594 C 218.4375 197.253906 218.316406 194.945312 218.105469 192.648438 Z M 218.105469 192.648438 " fill-opacity="1" fill-rule="nonzero"/></g><path fill="#1ecb15" d="M 210.628906 204.183594 C 213.519531 201.695312 215 197.867188 215.164062 194.109375 C 215.417969 195.148438 215.40625 196.226562 215.476562 197.285156 C 215.511719 198.695312 215.554688 200.113281 215.472656 201.519531 C 215.535156 201.8125 215.894531 201.890625 216.148438 201.949219 C 217.378906 202.132812 218.625 202.117188 219.867188 202.214844 C 219.515625 202.796875 218.992188 203.242188 218.515625 203.71875 C 217.78125 204.425781 217.011719 205.097656 216.226562 205.746094 C 215.324219 206.480469 214.085938 206.429688 212.996094 206.570312 C 210.644531 206.734375 208.273438 206.910156 205.921875 206.695312 C 207.640625 206.195312 209.273438 205.363281 210.628906 204.183594 Z M 210.628906 204.183594 " fill-opacity="1" fill-rule="nonzero"/><path fill="#1ecb15" d="M 124.894531 196.046875 C 127.070312 196.21875 129.238281 196.496094 131.414062 196.695312 C 141.46875 197.710938 151.53125 198.679688 161.601562 199.554688 C 168.335938 200.132812 175.074219 200.6875 181.824219 201.078125 C 183.480469 201.144531 185.132812 201.269531 186.789062 201.28125 C 184.117188 201.320312 181.441406 201.246094 178.765625 201.226562 C 171.992188 201.171875 165.21875 201.117188 158.445312 201.089844 C 157.957031 201.078125 157.472656 201.105469 156.988281 201.070312 C 146.289062 199.402344 135.59375 197.703125 124.894531 196.046875 Z M 124.894531 196.046875 " fill-opacity="1" fill-rule="nonzero"/><g clip-path="url(#dbbd7bd581)"><path fill="#1ecb15" d="M 261.726562 202.75 C 263.820312 202.691406 265.914062 202.597656 268.003906 202.421875 C 267.644531 203.078125 267.035156 203.539062 266.472656 204.011719 C 263.875 206.039062 260.695312 207.40625 257.386719 207.597656 C 255.273438 207.71875 253.136719 207.300781 251.226562 206.398438 C 249.382812 205.539062 247.746094 204.273438 246.339844 202.8125 C 251.46875 202.875 256.597656 202.886719 261.726562 202.75 Z M 261.726562 202.75 " fill-opacity="1" fill-rule="nonzero"/></g><g fill="#ffffff" fill-opacity="1"><g transform="translate(71.476018, 246.454642)"><g><path d="M 5.28125 0 C 3.164062 0 2.109375 -1.046875 2.109375 -3.140625 L 2.109375 -20.125 C 2.109375 -22.21875 3.164062 -23.265625 5.28125 -23.265625 L 13.328125 -23.265625 C 15.835938 -23.265625 17.78125 -22.71875 19.15625 -21.625 C 20.53125 -20.539062 21.21875 -19.085938 21.21875 -17.265625 C 21.21875 -16.046875 20.914062 -14.984375 20.3125 -14.078125 C 19.707031 -13.179688 18.863281 -12.515625 17.78125 -12.078125 C 19.082031 -11.679688 20.082031 -11.015625 20.78125 -10.078125 C 21.488281 -9.140625 21.84375 -7.976562 21.84375 -6.59375 C 21.84375 -4.550781 21.109375 -2.941406 19.640625 -1.765625 C 18.179688 -0.585938 16.1875 0 13.65625 0 Z M 7.921875 -14.03125 L 12.25 -14.03125 C 13.34375 -14.03125 14.144531 -14.226562 14.65625 -14.625 C 15.175781 -15.019531 15.4375 -15.625 15.4375 -16.4375 C 15.4375 -17.25 15.175781 -17.847656 14.65625 -18.234375 C 14.144531 -18.617188 13.34375 -18.8125 12.25 -18.8125 L 7.921875 -18.8125 Z M 7.921875 -4.453125 L 12.84375 -4.453125 C 13.957031 -4.453125 14.773438 -4.664062 15.296875 -5.09375 C 15.816406 -5.519531 16.078125 -6.164062 16.078125 -7.03125 C 16.078125 -7.882812 15.816406 -8.519531 15.296875 -8.9375 C 14.773438 -9.351562 13.957031 -9.5625 12.84375 -9.5625 L 7.921875 -9.5625 Z M 7.921875 -4.453125 "/></g></g></g><g fill="#ffffff" fill-opacity="1"><g transform="translate(99.525991, 246.454642)"><g><path d="M 5.140625 0.296875 C 4.179688 0.296875 3.4375 0.0351562 2.90625 -0.484375 C 2.375 -1.015625 2.109375 -1.789062 2.109375 -2.8125 L 2.109375 -20.453125 C 2.109375 -21.472656 2.375 -22.242188 2.90625 -22.765625 C 3.4375 -23.296875 4.179688 -23.5625 5.140625 -23.5625 C 6.109375 -23.5625 6.859375 -23.296875 7.390625 -22.765625 C 7.921875 -22.242188 8.1875 -21.472656 8.1875 -20.453125 L 8.1875 -14.28125 L 17.78125 -14.28125 L 17.78125 -20.453125 C 17.78125 -21.472656 18.046875 -22.242188 18.578125 -22.765625 C 19.109375 -23.296875 19.859375 -23.5625 20.828125 -23.5625 C 21.796875 -23.5625 22.535156 -23.296875 23.046875 -22.765625 C 23.566406 -22.242188 23.828125 -21.472656 23.828125 -20.453125 L 23.828125 -2.8125 C 23.828125 -1.789062 23.566406 -1.015625 23.046875 -0.484375 C 22.535156 0.0351562 21.796875 0.296875 20.828125 0.296875 C 19.835938 0.296875 19.082031 0.0351562 18.5625 -0.484375 C 18.039062 -1.015625 17.78125 -1.789062 17.78125 -2.8125 L 17.78125 -9.3125 L 8.1875 -9.3125 L 8.1875 -2.8125 C 8.1875 -1.789062 7.925781 -1.015625 7.40625 -0.484375 C 6.894531 0.0351562 6.140625 0.296875 5.140625 0.296875 Z M 5.140625 0.296875 "/></g></g></g><g fill="#ffffff" fill-opacity="1"><g transform="translate(130.347953, 246.454642)"><g><path d="M 3.203125 0.296875 C 2.171875 0.296875 1.410156 -0.0507812 0.921875 -0.75 C 0.441406 -1.457031 0.441406 -2.34375 0.921875 -3.40625 L 9.140625 -21.09375 C 9.535156 -21.945312 10.019531 -22.570312 10.59375 -22.96875 C 11.164062 -23.363281 11.835938 -23.5625 12.609375 -23.5625 C 13.359375 -23.5625 14.015625 -23.363281 14.578125 -22.96875 C 15.148438 -22.570312 15.632812 -21.945312 16.03125 -21.09375 L 24.25 -3.40625 C 24.757812 -2.320312 24.78125 -1.429688 24.3125 -0.734375 C 23.851562 -0.046875 23.128906 0.296875 22.140625 0.296875 C 21.265625 0.296875 20.585938 0.0976562 20.109375 -0.296875 C 19.640625 -0.691406 19.21875 -1.332031 18.84375 -2.21875 L 17.78125 -4.71875 L 7.390625 -4.71875 L 6.34375 -2.21875 C 5.9375 -1.332031 5.523438 -0.691406 5.109375 -0.296875 C 4.691406 0.0976562 4.054688 0.296875 3.203125 0.296875 Z M 12.546875 -16.921875 L 9.375 -9.375 L 15.78125 -9.375 L 12.609375 -16.921875 Z M 12.546875 -16.921875 "/></g></g></g><g fill="#ffffff" fill-opacity="1"><g transform="translate(160.410921, 246.454642)"><g><path d="M 5.140625 0.296875 C 4.179688 0.296875 3.4375 0.0351562 2.90625 -0.484375 C 2.375 -1.015625 2.109375 -1.773438 2.109375 -2.765625 L 2.109375 -20.203125 C 2.109375 -21.191406 2.375 -21.945312 2.90625 -22.46875 C 3.4375 -23 4.195312 -23.265625 5.1875 -23.265625 L 13.296875 -23.265625 C 15.941406 -23.265625 17.984375 -22.617188 19.421875 -21.328125 C 20.859375 -20.046875 21.578125 -18.257812 21.578125 -15.96875 C 21.578125 -14.226562 21.140625 -12.769531 20.265625 -11.59375 C 19.398438 -10.414062 18.144531 -9.597656 16.5 -9.140625 C 17.726562 -8.804688 18.71875 -7.957031 19.46875 -6.59375 L 21.125 -3.625 C 21.46875 -2.96875 21.625 -2.34375 21.59375 -1.75 C 21.5625 -1.15625 21.328125 -0.664062 20.890625 -0.28125 C 20.453125 0.101562 19.800781 0.296875 18.9375 0.296875 C 18.082031 0.296875 17.382812 0.128906 16.84375 -0.203125 C 16.300781 -0.546875 15.820312 -1.101562 15.40625 -1.875 L 12.40625 -7.390625 C 12.144531 -7.878906 11.8125 -8.210938 11.40625 -8.390625 C 11 -8.578125 10.53125 -8.671875 10 -8.671875 L 8.1875 -8.671875 L 8.1875 -2.765625 C 8.1875 -1.773438 7.925781 -1.015625 7.40625 -0.484375 C 6.894531 0.0351562 6.140625 0.296875 5.140625 0.296875 Z M 8.1875 -12.96875 L 12.203125 -12.96875 C 14.609375 -12.96875 15.8125 -13.914062 15.8125 -15.8125 C 15.8125 -17.675781 14.609375 -18.609375 12.203125 -18.609375 L 8.1875 -18.609375 Z M 8.1875 -12.96875 "/></g></g></g><g fill="#ffffff" fill-opacity="1"><g transform="translate(188.592888, 246.454642)"><g><path d="M 13.984375 0.359375 C 11.328125 0.359375 9.066406 -0.132812 7.203125 -1.125 C 5.347656 -2.113281 3.9375 -3.5 2.96875 -5.28125 C 2 -7.0625 1.515625 -9.140625 1.515625 -11.515625 C 1.515625 -13.984375 2.023438 -16.125 3.046875 -17.9375 C 4.078125 -19.75 5.546875 -21.148438 7.453125 -22.140625 C 9.367188 -23.128906 11.679688 -23.625 14.390625 -23.625 C 15.484375 -23.625 16.601562 -23.519531 17.75 -23.3125 C 18.894531 -23.101562 20.019531 -22.710938 21.125 -22.140625 C 21.695312 -21.878906 22.085938 -21.507812 22.296875 -21.03125 C 22.503906 -20.5625 22.566406 -20.0625 22.484375 -19.53125 C 22.410156 -19.007812 22.21875 -18.539062 21.90625 -18.125 C 21.601562 -17.71875 21.203125 -17.4375 20.703125 -17.28125 C 20.210938 -17.132812 19.648438 -17.203125 19.015625 -17.484375 C 17.648438 -18.128906 16.117188 -18.453125 14.421875 -18.453125 C 12.203125 -18.453125 10.546875 -17.859375 9.453125 -16.671875 C 8.367188 -15.484375 7.828125 -13.765625 7.828125 -11.515625 C 7.828125 -9.273438 8.375 -7.582031 9.46875 -6.4375 C 10.570312 -5.289062 12.203125 -4.71875 14.359375 -4.71875 C 15.367188 -4.71875 16.5 -4.875 17.75 -5.1875 L 17.75 -8.84375 L 15.4375 -8.84375 C 13.875 -8.84375 13.09375 -9.554688 13.09375 -10.984375 C 13.09375 -12.390625 13.875 -13.09375 15.4375 -13.09375 L 20.328125 -13.09375 C 21.910156 -13.09375 22.703125 -12.300781 22.703125 -10.71875 L 22.703125 -3.4375 C 22.703125 -2.769531 22.5625 -2.207031 22.28125 -1.75 C 22.007812 -1.289062 21.578125 -0.960938 20.984375 -0.765625 C 19.929688 -0.410156 18.804688 -0.132812 17.609375 0.0625 C 16.410156 0.257812 15.203125 0.359375 13.984375 0.359375 Z M 13.984375 0.359375 "/></g></g></g><g fill="#ffffff" fill-opacity="1"><g transform="translate(218.127855, 246.454642)"><g><path d="M 5.140625 0.296875 C 4.179688 0.296875 3.4375 0.0351562 2.90625 -0.484375 C 2.375 -1.015625 2.109375 -1.789062 2.109375 -2.8125 L 2.109375 -20.453125 C 2.109375 -21.472656 2.375 -22.242188 2.90625 -22.765625 C 3.4375 -23.296875 4.179688 -23.5625 5.140625 -23.5625 C 6.109375 -23.5625 6.859375 -23.296875 7.390625 -22.765625 C 7.921875 -22.242188 8.1875 -21.472656 8.1875 -20.453125 L 8.1875 -14.28125 L 17.78125 -14.28125 L 17.78125 -20.453125 C 17.78125 -21.472656 18.046875 -22.242188 18.578125 -22.765625 C 19.109375 -23.296875 19.859375 -23.5625 20.828125 -23.5625 C 21.796875 -23.5625 22.535156 -23.296875 23.046875 -22.765625 C 23.566406 -22.242188 23.828125 -21.472656 23.828125 -20.453125 L 23.828125 -2.8125 C 23.828125 -1.789062 23.566406 -1.015625 23.046875 -0.484375 C 22.535156 0.0351562 21.796875 0.296875 20.828125 0.296875 C 19.835938 0.296875 19.082031 0.0351562 18.5625 -0.484375 C 18.039062 -1.015625 17.78125 -1.789062 17.78125 -2.8125 L 17.78125 -9.3125 L 8.1875 -9.3125 L 8.1875 -2.8125 C 8.1875 -1.789062 7.925781 -1.015625 7.40625 -0.484375 C 6.894531 0.0351562 6.140625 0.296875 5.140625 0.296875 Z M 5.140625 0.296875 "/></g></g></g><g fill="#ffffff" fill-opacity="1"><g transform="translate(248.949814, 246.454642)"><g><path d="M 3.203125 0.296875 C 2.171875 0.296875 1.410156 -0.0507812 0.921875 -0.75 C 0.441406 -1.457031 0.441406 -2.34375 0.921875 -3.40625 L 9.140625 -21.09375 C 9.535156 -21.945312 10.019531 -22.570312 10.59375 -22.96875 C 11.164062 -23.363281 11.835938 -23.5625 12.609375 -23.5625 C 13.359375 -23.5625 14.015625 -23.363281 14.578125 -22.96875 C 15.148438 -22.570312 15.632812 -21.945312 16.03125 -21.09375 L 24.25 -3.40625 C 24.757812 -2.320312 24.78125 -1.429688 24.3125 -0.734375 C 23.851562 -0.046875 23.128906 0.296875 22.140625 0.296875 C 21.265625 0.296875 20.585938 0.0976562 20.109375 -0.296875 C 19.640625 -0.691406 19.21875 -1.332031 18.84375 -2.21875 L 17.78125 -4.71875 L 7.390625 -4.71875 L 6.34375 -2.21875 C 5.9375 -1.332031 5.523438 -0.691406 5.109375 -0.296875 C 4.691406 0.0976562 4.054688 0.296875 3.203125 0.296875 Z M 12.546875 -16.921875 L 9.375 -9.375 L 15.78125 -9.375 L 12.609375 -16.921875 Z M 12.546875 -16.921875 "/></g></g></g><g fill="#ffffff" fill-opacity="1"><g transform="translate(279.012777, 246.454642)"><g><path d="M 12.28125 0.296875 C 11.4375 0.296875 10.753906 0.117188 10.234375 -0.234375 C 9.722656 -0.585938 9.289062 -1.144531 8.9375 -1.90625 L 0.953125 -19.53125 C 0.597656 -20.300781 0.488281 -20.992188 0.625 -21.609375 C 0.757812 -22.222656 1.066406 -22.703125 1.546875 -23.046875 C 2.035156 -23.390625 2.640625 -23.5625 3.359375 -23.5625 C 4.242188 -23.5625 4.914062 -23.363281 5.375 -22.96875 C 5.84375 -22.570312 6.238281 -21.988281 6.5625 -21.21875 L 12.375 -7.75 L 18.1875 -21.25 C 18.507812 -22.019531 18.898438 -22.597656 19.359375 -22.984375 C 19.828125 -23.367188 20.476562 -23.5625 21.3125 -23.5625 C 22 -23.5625 22.570312 -23.382812 23.03125 -23.03125 C 23.5 -22.675781 23.789062 -22.195312 23.90625 -21.59375 C 24.03125 -20.988281 23.914062 -20.300781 23.5625 -19.53125 L 15.546875 -1.90625 C 15.210938 -1.144531 14.785156 -0.585938 14.265625 -0.234375 C 13.753906 0.117188 13.09375 0.296875 12.28125 0.296875 Z M 12.28125 0.296875 "/></g></g></g><g fill="#ffffff" fill-opacity="1"><g transform="translate(308.393975, 246.454642)"><g/></g></g><g fill="#ffffff" fill-opacity="1"><g transform="translate(119.062496, 274.036535)"><g><path d="M 9.71875 -3.765625 C 9.71875 -2.546875 9.273438 -1.582031 8.390625 -0.875 C 7.503906 -0.164062 6.28125 0.1875 4.71875 0.1875 C 3.269531 0.1875 1.988281 -0.0820312 0.875 -0.625 L 0.875 -3.296875 C 1.789062 -2.890625 2.5625 -2.601562 3.1875 -2.4375 C 3.820312 -2.269531 4.40625 -2.1875 4.9375 -2.1875 C 5.5625 -2.1875 6.039062 -2.304688 6.375 -2.546875 C 6.71875 -2.785156 6.890625 -3.144531 6.890625 -3.625 C 6.890625 -3.894531 6.816406 -4.128906 6.671875 -4.328125 C 6.523438 -4.535156 6.304688 -4.734375 6.015625 -4.921875 C 5.722656 -5.117188 5.140625 -5.429688 4.265625 -5.859375 C 3.429688 -6.242188 2.804688 -6.613281 2.390625 -6.96875 C 1.972656 -7.332031 1.640625 -7.75 1.390625 -8.21875 C 1.148438 -8.695312 1.03125 -9.257812 1.03125 -9.90625 C 1.03125 -11.101562 1.4375 -12.046875 2.25 -12.734375 C 3.0625 -13.421875 4.1875 -13.765625 5.625 -13.765625 C 6.332031 -13.765625 7.003906 -13.675781 7.640625 -13.5 C 8.273438 -13.332031 8.945312 -13.097656 9.65625 -12.796875 L 8.71875 -10.5625 C 8 -10.863281 7.398438 -11.070312 6.921875 -11.1875 C 6.453125 -11.300781 5.988281 -11.359375 5.53125 -11.359375 C 4.988281 -11.359375 4.570312 -11.234375 4.28125 -10.984375 C 3.988281 -10.734375 3.84375 -10.398438 3.84375 -9.984375 C 3.84375 -9.734375 3.898438 -9.515625 4.015625 -9.328125 C 4.128906 -9.140625 4.316406 -8.957031 4.578125 -8.78125 C 4.835938 -8.601562 5.445312 -8.285156 6.40625 -7.828125 C 7.664062 -7.222656 8.53125 -6.613281 9 -6 C 9.476562 -5.394531 9.71875 -4.648438 9.71875 -3.765625 Z M 9.71875 -3.765625 "/></g></g></g><g fill="#ffffff" fill-opacity="1"><g transform="translate(129.525187, 274.036535)"><g><path d="M 5.78125 -8.546875 C 5.175781 -8.546875 4.703125 -8.351562 4.359375 -7.96875 C 4.023438 -7.59375 3.832031 -7.054688 3.78125 -6.359375 L 7.75 -6.359375 C 7.738281 -7.054688 7.554688 -7.59375 7.203125 -7.96875 C 6.859375 -8.351562 6.382812 -8.546875 5.78125 -8.546875 Z M 6.171875 0.1875 C 4.503906 0.1875 3.203125 -0.269531 2.265625 -1.1875 C 1.328125 -2.113281 0.859375 -3.421875 0.859375 -5.109375 C 0.859375 -6.847656 1.289062 -8.191406 2.15625 -9.140625 C 3.019531 -10.085938 4.222656 -10.5625 5.765625 -10.5625 C 7.222656 -10.5625 8.359375 -10.144531 9.171875 -9.3125 C 9.992188 -8.476562 10.40625 -7.328125 10.40625 -5.859375 L 10.40625 -4.484375 L 3.71875 -4.484375 C 3.75 -3.679688 3.988281 -3.050781 4.4375 -2.59375 C 4.882812 -2.144531 5.507812 -1.921875 6.3125 -1.921875 C 6.9375 -1.921875 7.523438 -1.984375 8.078125 -2.109375 C 8.640625 -2.242188 9.222656 -2.453125 9.828125 -2.734375 L 9.828125 -0.546875 C 9.328125 -0.296875 8.796875 -0.113281 8.234375 0 C 7.671875 0.125 6.984375 0.1875 6.171875 0.1875 Z M 6.171875 0.1875 "/></g></g></g><g fill="#ffffff" fill-opacity="1"><g transform="translate(140.748465, 274.036535)"><g><path d="M 4.3125 0 L 1.484375 0 L 1.484375 -14.4375 L 4.3125 -14.4375 Z M 4.3125 0 "/></g></g></g><g fill="#ffffff" fill-opacity="1"><g transform="translate(146.545618, 274.036535)"><g><path d="M 7.21875 -8.25 L 4.765625 -8.25 L 4.765625 0 L 1.9375 0 L 1.9375 -8.25 L 0.375 -8.25 L 0.375 -9.609375 L 1.9375 -10.375 L 1.9375 -11.140625 C 1.9375 -12.316406 2.226562 -13.175781 2.8125 -13.71875 C 3.394531 -14.257812 4.328125 -14.53125 5.609375 -14.53125 C 6.578125 -14.53125 7.441406 -14.390625 8.203125 -14.109375 L 7.484375 -12.03125 C 6.921875 -12.207031 6.394531 -12.296875 5.90625 -12.296875 C 5.507812 -12.296875 5.21875 -12.175781 5.03125 -11.9375 C 4.851562 -11.695312 4.765625 -11.390625 4.765625 -11.015625 L 4.765625 -10.375 L 7.21875 -10.375 Z M 7.21875 -8.25 "/></g></g></g><g fill="#ffffff" fill-opacity="1"><g transform="translate(153.901044, 274.036535)"><g/></g></g><g fill="#ffffff" fill-opacity="1"><g transform="translate(158.835576, 274.036535)"><g><path d="M 12.953125 -6.90625 C 12.953125 -4.675781 12.316406 -2.96875 11.046875 -1.78125 C 9.773438 -0.59375 7.941406 0 5.546875 0 L 1.703125 0 L 1.703125 -13.5625 L 5.96875 -13.5625 C 8.175781 -13.5625 9.890625 -12.976562 11.109375 -11.8125 C 12.335938 -10.644531 12.953125 -9.007812 12.953125 -6.90625 Z M 9.96875 -6.84375 C 9.96875 -9.75 8.679688 -11.203125 6.109375 -11.203125 L 4.578125 -11.203125 L 4.578125 -2.375 L 5.8125 -2.375 C 8.582031 -2.375 9.96875 -3.863281 9.96875 -6.84375 Z M 9.96875 -6.84375 "/></g></g></g><g fill="#ffffff" fill-opacity="1"><g transform="translate(172.897137, 274.036535)"><g><path d="M 7.28125 -10.5625 C 7.65625 -10.5625 7.972656 -10.535156 8.234375 -10.484375 L 8.015625 -7.828125 C 7.785156 -7.890625 7.507812 -7.921875 7.1875 -7.921875 C 6.28125 -7.921875 5.570312 -7.6875 5.0625 -7.21875 C 4.5625 -6.757812 4.3125 -6.113281 4.3125 -5.28125 L 4.3125 0 L 1.484375 0 L 1.484375 -10.375 L 3.625 -10.375 L 4.046875 -8.625 L 4.1875 -8.625 C 4.507812 -9.207031 4.941406 -9.675781 5.484375 -10.03125 C 6.035156 -10.382812 6.632812 -10.5625 7.28125 -10.5625 Z M 7.28125 -10.5625 "/></g></g></g><g fill="#ffffff" fill-opacity="1"><g transform="translate(181.523292, 274.036535)"><g><path d="M 1.359375 -13.046875 C 1.359375 -13.972656 1.875 -14.4375 2.90625 -14.4375 C 3.925781 -14.4375 4.4375 -13.972656 4.4375 -13.046875 C 4.4375 -12.609375 4.304688 -12.265625 4.046875 -12.015625 C 3.796875 -11.773438 3.414062 -11.65625 2.90625 -11.65625 C 1.875 -11.65625 1.359375 -12.117188 1.359375 -13.046875 Z M 4.3125 0 L 1.484375 0 L 1.484375 -10.375 L 4.3125 -10.375 Z M 4.3125 0 "/></g></g></g><g fill="#ffffff" fill-opacity="1"><g transform="translate(187.320445, 274.036535)"><g><path d="M 3.953125 0 L 0 -10.375 L 2.953125 -10.375 L 4.96875 -4.46875 C 5.1875 -3.71875 5.320312 -3.007812 5.375 -2.34375 L 5.4375 -2.34375 C 5.46875 -2.9375 5.609375 -3.644531 5.859375 -4.46875 L 7.84375 -10.375 L 10.8125 -10.375 L 6.859375 0 Z M 3.953125 0 "/></g></g></g><g fill="#ffffff" fill-opacity="1"><g transform="translate(198.126333, 274.036535)"><g><path d="M 5.78125 -8.546875 C 5.175781 -8.546875 4.703125 -8.351562 4.359375 -7.96875 C 4.023438 -7.59375 3.832031 -7.054688 3.78125 -6.359375 L 7.75 -6.359375 C 7.738281 -7.054688 7.554688 -7.59375 7.203125 -7.96875 C 6.859375 -8.351562 6.382812 -8.546875 5.78125 -8.546875 Z M 6.171875 0.1875 C 4.503906 0.1875 3.203125 -0.269531 2.265625 -1.1875 C 1.328125 -2.113281 0.859375 -3.421875 0.859375 -5.109375 C 0.859375 -6.847656 1.289062 -8.191406 2.15625 -9.140625 C 3.019531 -10.085938 4.222656 -10.5625 5.765625 -10.5625 C 7.222656 -10.5625 8.359375 -10.144531 9.171875 -9.3125 C 9.992188 -8.476562 10.40625 -7.328125 10.40625 -5.859375 L 10.40625 -4.484375 L 3.71875 -4.484375 C 3.75 -3.679688 3.988281 -3.050781 4.4375 -2.59375 C 4.882812 -2.144531 5.507812 -1.921875 6.3125 -1.921875 C 6.9375 -1.921875 7.523438 -1.984375 8.078125 -2.109375 C 8.640625 -2.242188 9.222656 -2.453125 9.828125 -2.734375 L 9.828125 -0.546875 C 9.328125 -0.296875 8.796875 -0.113281 8.234375 0 C 7.671875 0.125 6.984375 0.1875 6.171875 0.1875 Z M 6.171875 0.1875 "/></g></g></g><g fill="#ffffff" fill-opacity="1"><g transform="translate(209.349611, 274.036535)"><g/></g></g><g fill="#ffffff" fill-opacity="1"><g transform="translate(214.284143, 274.036535)"><g><path d="M 7.46875 -11.359375 C 6.382812 -11.359375 5.546875 -10.953125 4.953125 -10.140625 C 4.359375 -9.328125 4.0625 -8.195312 4.0625 -6.75 C 4.0625 -3.71875 5.195312 -2.203125 7.46875 -2.203125 C 8.414062 -2.203125 9.566406 -2.441406 10.921875 -2.921875 L 10.921875 -0.515625 C 9.816406 -0.046875 8.578125 0.1875 7.203125 0.1875 C 5.222656 0.1875 3.710938 -0.410156 2.671875 -1.609375 C 1.628906 -2.804688 1.109375 -4.523438 1.109375 -6.765625 C 1.109375 -8.171875 1.363281 -9.40625 1.875 -10.46875 C 2.382812 -11.53125 3.117188 -12.34375 4.078125 -12.90625 C 5.046875 -13.476562 6.175781 -13.765625 7.46875 -13.765625 C 8.78125 -13.765625 10.101562 -13.441406 11.4375 -12.796875 L 10.515625 -10.46875 C 10.003906 -10.707031 9.488281 -10.914062 8.96875 -11.09375 C 8.457031 -11.269531 7.957031 -11.359375 7.46875 -11.359375 Z M 7.46875 -11.359375 "/></g></g></g><g fill="#ffffff" fill-opacity="1"><g transform="translate(226.388592, 274.036535)"><g><path d="M 8.078125 0 L 7.53125 -1.40625 L 7.453125 -1.40625 C 6.972656 -0.8125 6.476562 -0.394531 5.96875 -0.15625 C 5.46875 0.0703125 4.816406 0.1875 4.015625 0.1875 C 3.015625 0.1875 2.226562 -0.09375 1.65625 -0.65625 C 1.082031 -1.226562 0.796875 -2.039062 0.796875 -3.09375 C 0.796875 -4.195312 1.179688 -5.007812 1.953125 -5.53125 C 2.722656 -6.050781 3.882812 -6.34375 5.4375 -6.40625 L 7.234375 -6.453125 L 7.234375 -6.90625 C 7.234375 -7.957031 6.695312 -8.484375 5.625 -8.484375 C 4.789062 -8.484375 3.816406 -8.234375 2.703125 -7.734375 L 1.765625 -9.65625 C 2.953125 -10.269531 4.273438 -10.578125 5.734375 -10.578125 C 7.128906 -10.578125 8.195312 -10.273438 8.9375 -9.671875 C 9.675781 -9.066406 10.046875 -8.144531 10.046875 -6.90625 L 10.046875 0 Z M 7.234375 -4.8125 L 6.140625 -4.765625 C 5.316406 -4.742188 4.703125 -4.597656 4.296875 -4.328125 C 3.898438 -4.054688 3.703125 -3.640625 3.703125 -3.078125 C 3.703125 -2.285156 4.160156 -1.890625 5.078125 -1.890625 C 5.734375 -1.890625 6.253906 -2.078125 6.640625 -2.453125 C 7.035156 -2.828125 7.234375 -3.328125 7.234375 -3.953125 Z M 7.234375 -4.8125 "/></g></g></g><g fill="#ffffff" fill-opacity="1"><g transform="translate(237.862312, 274.036535)"><g><path d="M 7.28125 -10.5625 C 7.65625 -10.5625 7.972656 -10.535156 8.234375 -10.484375 L 8.015625 -7.828125 C 7.785156 -7.890625 7.507812 -7.921875 7.1875 -7.921875 C 6.28125 -7.921875 5.570312 -7.6875 5.0625 -7.21875 C 4.5625 -6.757812 4.3125 -6.113281 4.3125 -5.28125 L 4.3125 0 L 1.484375 0 L 1.484375 -10.375 L 3.625 -10.375 L 4.046875 -8.625 L 4.1875 -8.625 C 4.507812 -9.207031 4.941406 -9.675781 5.484375 -10.03125 C 6.035156 -10.382812 6.632812 -10.5625 7.28125 -10.5625 Z M 7.28125 -10.5625 "/></g></g></g><g fill="#ffffff" fill-opacity="1"><g transform="translate(246.488467, 274.036535)"><g><path d="M 8.71875 -3.078125 C 8.71875 -2.015625 8.347656 -1.203125 7.609375 -0.640625 C 6.867188 -0.0859375 5.765625 0.1875 4.296875 0.1875 C 3.535156 0.1875 2.890625 0.132812 2.359375 0.03125 C 1.828125 -0.0703125 1.332031 -0.222656 0.875 -0.421875 L 0.875 -2.75 C 1.394531 -2.507812 1.984375 -2.304688 2.640625 -2.140625 C 3.304688 -1.972656 3.890625 -1.890625 4.390625 -1.890625 C 5.410156 -1.890625 5.921875 -2.1875 5.921875 -2.78125 C 5.921875 -3 5.851562 -3.175781 5.71875 -3.3125 C 5.582031 -3.457031 5.347656 -3.613281 5.015625 -3.78125 C 4.679688 -3.957031 4.238281 -4.164062 3.6875 -4.40625 C 2.882812 -4.738281 2.296875 -5.046875 1.921875 -5.328125 C 1.546875 -5.617188 1.273438 -5.945312 1.109375 -6.3125 C 0.941406 -6.675781 0.859375 -7.128906 0.859375 -7.671875 C 0.859375 -8.597656 1.210938 -9.3125 1.921875 -9.8125 C 2.640625 -10.3125 3.65625 -10.5625 4.96875 -10.5625 C 6.21875 -10.5625 7.429688 -10.289062 8.609375 -9.75 L 7.75 -7.703125 C 7.238281 -7.929688 6.753906 -8.113281 6.296875 -8.25 C 5.847656 -8.394531 5.390625 -8.46875 4.921875 -8.46875 C 4.085938 -8.46875 3.671875 -8.242188 3.671875 -7.796875 C 3.671875 -7.535156 3.800781 -7.3125 4.0625 -7.125 C 4.332031 -6.945312 4.921875 -6.675781 5.828125 -6.3125 C 6.640625 -5.976562 7.234375 -5.671875 7.609375 -5.390625 C 7.992188 -5.109375 8.273438 -4.78125 8.453125 -4.40625 C 8.628906 -4.03125 8.71875 -3.585938 8.71875 -3.078125 Z M 8.71875 -3.078125 "/></g></g></g></svg>